<svg xmlns="http://www.w3.org/2000/svg" version="1.1" xmlns:xlink="http://www.w3.org/1999/xlink" xmlns:svgjs="http://svgjs.dev/svgjs" width="1500" height="1500" viewBox="0 0 1500 1500"><rect width="1500" height="1500" fill="#000000"></rect><g transform="matrix(0.6666666666666666,0,0,0.6666666666666666,249.39393939393938,606.8230625428773)"><svg viewBox="0 0 396 113" data-background-color="#0074d9" preserveAspectRatio="xMidYMid meet" height="428" width="1500" xmlns="http://www.w3.org/2000/svg" xmlns:xlink="http://www.w3.org/1999/xlink"><g id="tight-bounds" transform="matrix(1,0,0,1,0.2400000000000091,0.5090512307498898)"><svg viewBox="0 0 395.52 111.99268043880974" height="111.99268043880974" width="395.52"><g><svg viewBox="0 0 530.9430970311964 150.3381386453447" height="111.99268043880974" width="395.52"><g><rect width="3.60702716510127" height="66.25875075146753" x="404.9624794897939" y="42.03969394693859" fill="#ffffff" opacity="1" stroke-width="0" stroke="transparent" fill-opacity="1" class="rect-yte-0" data-fill-palette-color="primary" rx="1%" id="yte-0" data-palette-color="#ffffff"></rect></g><g transform="matrix(1,0,0,1,0,42.20451671000194)"><svg viewBox="0 0 395.52 65.92910522534083" height="65.92910522534083" width="395.52"><g id="textblocktransform"><svg viewBox="0 0 395.52 65.92910522534083" height="65.92910522534083" width="395.52" id="textblock"><g><svg viewBox="0 0 395.52 39.99762572135202" height="39.99762572135202" width="395.52"><g transform="matrix(1,0,0,1,0,0)"><svg width="395.52" viewBox="0.93 -35.64 355.33 35.93" height="39.99762572135202" data-palette-color="#ffffff"><g class="wordmark-text-0" data-fill-palette-color="primary" id="text-0"><path d="M2.39-3.71L2.39-24.37Q2.2-24.41 1.93-24.66 1.66-24.9 1.44-25.2 1.22-25.49 1.07-25.78 0.93-26.07 0.93-26.27L0.93-26.27Q1.07-27.88 2.12-28.69 3.17-29.49 4.54-29.79 5.91-30.08 7.37-30.08 8.84-30.08 9.86-30.08L9.86-30.08Q11.57-30.08 13.01-29.91 14.45-29.74 15.53-29.13 16.6-28.52 17.24-27.39 17.87-26.27 17.87-24.32L17.87-24.32Q17.87-23.34 17.8-22.58 17.72-21.83 17.53-21.12 17.33-20.41 16.94-19.6 16.55-18.8 15.92-17.77L15.92-17.77Q17.92-17.14 19.24-16.58 20.56-16.02 21.29-15.21 22.02-14.4 22.29-13.26 22.56-12.11 22.56-10.3L22.56-10.3Q22.56-8.15 21.63-6.25 20.7-4.35 19.17-2.93 17.63-1.51 15.58-0.71 13.53 0.1 11.23 0.1L11.23 0.1Q10.74 0.1 9.91-0.07 9.08-0.24 8.11-0.51 7.13-0.78 6.1-1.15 5.08-1.51 4.25-1.95 3.42-2.39 2.91-2.83 2.39-3.27 2.39-3.71L2.39-3.71ZM5.62-13.09L5.62-13.09Q5.71-11.91 5.52-10.64 5.32-9.38 5.18-8.2 5.03-7.03 5.08-5.98 5.13-4.93 5.66-4.1 6.2-3.27 7.42-2.66 8.64-2.05 10.79-1.81L10.79-1.81Q12.6-1.81 14.38-2.47 16.16-3.13 17.55-4.27 18.95-5.42 19.82-7.01 20.7-8.59 20.7-10.5L20.7-10.5Q20.7-11.77 20.26-12.65 19.82-13.53 19.09-14.09 18.36-14.65 17.36-14.89 16.36-15.14 15.23-15.14L15.23-15.14Q13.82-15.14 12.7-15.06 11.57-14.99 10.47-14.77 9.38-14.55 8.23-14.14 7.08-13.72 5.62-13.09ZM4.64-18.16L4.64-18.16Q4.64-17.77 4.69-17.36 4.74-16.94 4.86-16.63 4.98-16.31 5.27-16.09 5.57-15.87 6.05-15.87L6.05-15.87Q7.71-15.87 9.47-16.5 11.23-17.14 12.67-18.26 14.11-19.38 15.06-20.92 16.02-22.46 16.02-24.37L16.02-24.37Q16.02-24.56 15.92-24.93 15.82-25.29 15.48-25.68 15.14-26.07 14.45-26.44 13.77-26.81 12.62-27.05 11.47-27.29 9.77-27.34 8.06-27.39 5.62-27.15L5.62-27.15Q5.52-27.05 5.4-26.51 5.27-25.98 5.15-25.17 5.03-24.37 4.96-23.41 4.88-22.46 4.81-21.51 4.74-20.56 4.69-19.68 4.64-18.8 4.64-18.16ZM46.19-0.93L43.36-12.21Q41.4-7.28 39.5-4.59 37.6-1.9 35.79-1 33.98-0.1 32.37-0.78 30.76-1.46 29.42-3.3 28.07-5.13 27.12-7.91 26.17-10.69 25.61-14.01 25.05-17.33 25.02-20.97 25-24.61 25.58-28.13L25.58-28.13 27.49-27.93Q26.95-21.68 27.37-17.07 27.78-12.45 28.71-9.38 29.64-6.3 30.86-4.69 32.08-3.08 33.2-2.83L33.2-2.83Q34.86-2.83 36.15-3.71 37.45-4.59 38.45-6.01 39.45-7.42 40.16-9.23 40.87-11.04 41.31-12.89 41.75-14.75 41.94-16.48 42.14-18.21 42.14-19.48L42.14-19.48Q42.14-21.14 42.04-22.44 41.94-23.73 41.72-25 41.5-26.27 41.23-27.61 40.96-28.96 40.62-30.71L40.62-30.71 43.02-32.47Q44.14-25.39 44.94-20.34 45.75-15.28 46.34-11.89 46.92-8.5 47.26-6.47 47.6-4.44 47.82-3.3 48.04-2.15 48.12-1.68 48.19-1.22 48.19-0.93L48.19-0.93 46.19-0.93ZM71.48 0L52.73-29.05Q52.73-28.91 52.7-28.42 52.68-27.93 52.68-27.42 52.68-26.9 52.68-26.44 52.68-25.98 52.68-25.83L52.68-25.83Q52.68-22.66 52.83-19.48 52.97-16.31 53.17-13.11 53.36-9.91 53.51-6.69 53.66-3.47 53.66-0.24L53.66-0.24 51.9-0.34Q51.85-1.27 51.73-2.93 51.61-4.59 51.44-6.76 51.26-8.94 51.07-11.43 50.87-13.92 50.65-16.48 50.43-19.04 50.29-21.53 50.14-24.02 50.02-26.15 49.9-28.27 49.85-29.91 49.8-31.54 49.85-32.42L49.85-32.42Q49.85-33.01 50.29-33.4 50.73-33.79 51.31-33.79L51.31-33.79Q51.9-33.79 52.66-33.52 53.41-33.25 53.66-32.81L53.66-32.81 71.24-4.44Q71.24-6.69 71.11-9.28 70.99-11.87 70.89-14.6 70.8-17.33 70.77-20.09 70.75-22.85 70.87-25.46 70.99-28.08 71.36-30.42 71.72-32.76 72.41-34.67L72.41-34.67Q73.09-34.91 73.48-34.94 73.87-34.96 74.07-34.91 74.26-34.86 74.29-34.67 74.31-34.47 74.31-34.28L74.31-34.28Q74.31-34.18 74.31-33.98 74.31-33.79 74.31-33.74L74.31-33.74Q74.21-33.45 74.09-32.67 73.97-31.88 73.77-30.35 73.58-28.81 73.43-26.37 73.29-23.93 73.14-20.31 72.99-16.7 72.92-11.72 72.85-6.74 72.9-0.1L72.9-0.1 71.48 0ZM78.95-1.86L77.09-24.37Q76.99-24.46 76.85-24.71 76.7-24.95 76.56-25.27 76.41-25.59 76.29-25.85 76.16-26.12 76.16-26.27L76.16-26.27Q76.16-26.71 76.56-26.95 76.95-27.2 77.43-27.25 77.92-27.29 78.39-27.29 78.85-27.29 78.95-27.29L78.95-27.29Q79.09-27.29 79.36-27.27 79.63-27.25 79.95-27.22 80.27-27.2 80.51-27.17 80.75-27.15 80.85-27.15L80.85-27.15Q82.46-26.56 84.54-25.78 86.61-25 88.81-23.97 91.01-22.95 93.11-21.66 95.21-20.36 96.87-18.73 98.53-17.09 99.55-15.14 100.58-13.18 100.58-10.79L100.58-10.79Q100.58-8.74 99.8-7.1 99.02-5.47 97.72-4.27 96.43-3.08 94.72-2.22 93.01-1.37 91.23-0.85 89.45-0.34 87.64-0.1 85.83 0.15 84.27 0.15L84.27 0.15Q83.93 0.15 83.1 0.12 82.27 0.1 81.39 0.05 80.51 0 79.8-0.02 79.09-0.05 79.05-0.05L79.05-0.05 78.95-1.86ZM79.88-24.61L79.88-24.61Q79.88-24.51 79.88-24.22 79.88-23.93 79.9-23.56 79.92-23.19 79.92-22.9 79.92-22.61 79.92-22.46L79.92-22.46Q79.97-21.73 80.05-20.12 80.12-18.51 80.19-16.46 80.27-14.4 80.39-12.18 80.51-9.96 80.61-7.93 80.71-5.91 80.78-4.27 80.85-2.64 80.85-1.86L80.85-1.86Q81.14-1.86 81.8-1.83 82.46-1.81 83.2-1.78 83.93-1.76 84.59-1.73 85.25-1.71 85.54-1.71L85.54-1.71Q87.79-1.71 89.98-2.27 92.18-2.83 93.91-3.98 95.65-5.13 96.75-6.96 97.84-8.79 97.84-11.38L97.84-11.38Q97.84-13.28 96.97-15.01 96.09-16.75 94.65-18.21 93.21-19.68 91.35-20.85 89.49-22.02 87.52-22.88 85.54-23.73 83.56-24.17 81.58-24.61 79.88-24.61ZM102.19-26.27L102.19-26.27Q102.97-27.39 104.26-28.2 105.56-29 107.14-29.54 108.73-30.08 110.56-30.37 112.39-30.66 114.15-30.81 115.91-30.96 117.57-31.01 119.23-31.05 120.5-31.05L120.5-31.05Q120.6-31.05 120.94-31.03 121.28-31.01 121.67-30.98 122.06-30.96 122.38-30.96 122.7-30.96 122.84-30.96L122.84-30.96Q123.04-29.88 122.62-29.47 122.21-29.05 121.55-28.98 120.89-28.91 120.16-29.03 119.42-29.15 119.08-29.05L119.08-29.05Q118.59-29 117.54-28.78 116.49-28.56 115.22-28.3 113.95-28.03 112.51-27.71 111.07-27.39 109.78-27.12 108.49-26.86 107.46-26.61 106.44-26.37 105.95-26.27L105.95-26.27Q105.17-25.98 105.07-25.54 104.97-25.1 104.97-24.51L104.97-24.51Q104.97-23.49 105.09-22.22 105.21-20.95 105.39-19.7 105.56-18.46 105.73-17.43 105.9-16.41 105.95-15.92L105.95-15.92Q106.14-15.87 106.68-15.87 107.22-15.87 107.41-15.87L107.41-15.87Q108.53-15.87 109.61-16.06 110.68-16.26 111.76-16.5 112.83-16.75 113.95-16.92 115.08-17.09 116.25-17.09L116.25-17.09 116.25-15.28Q115.76-15.28 114.88-15.21 114-15.14 112.95-14.94 111.9-14.75 110.83-14.53 109.76-14.31 108.88-14.06 108-13.82 107.44-13.57 106.87-13.33 106.87-13.09L106.87-13.09 106.87-2.93Q109.17-2.93 111.44-3.08 113.71-3.22 116.01-3.39 118.3-3.56 120.6-3.71 122.89-3.86 125.19-3.86L125.19-3.86Q125.19-3.27 124.79-2.91 124.4-2.54 123.89-2.32 123.38-2.1 122.79-2 122.21-1.9 121.91-1.86L121.91-1.86Q121.72-1.81 120.69-1.71 119.67-1.61 118.15-1.42 116.64-1.22 114.78-1.03 112.93-0.83 111.12-0.63 109.32-0.44 107.7-0.27 106.09-0.1 105.02 0L105.02 0Q104.87 0.05 104.58 0.05L104.58 0.05Q104.58-6.49 104.16-13.16 103.75-19.82 102.19-26.27ZM127.28-32.81L129.14-32.81 130.99-1.86Q135.34-1.86 139.71-2.42 144.08-2.98 148.67-3.47L148.67-3.47 148.86-1.86Q148.82-1.86 147.96-1.73 147.11-1.61 145.72-1.44 144.32-1.27 142.57-1.07 140.81-0.88 139.05-0.68 137.29-0.49 135.68-0.29 134.07-0.1 132.9 0L132.9 0Q132.85 0 132.65 0.02 132.46 0.05 132.21 0.05 131.97 0.05 131.73 0.05 131.48 0.05 131.34 0.05L131.34 0.05Q130.26 0.05 129.58-1.1 128.89-2.25 128.45-4.22 128.01-6.2 127.82-8.76 127.62-11.33 127.53-14.11 127.43-16.89 127.45-19.73 127.48-22.56 127.48-25.07 127.48-27.59 127.45-29.64 127.43-31.69 127.28-32.81L127.28-32.81ZM150.72-33.74L150.72-34.33Q150.72-34.91 151.13-35.28 151.55-35.64 152.13-35.64L152.13-35.64Q152.18-35.64 152.38-35.64 152.57-35.64 152.62-35.64L152.62-35.64Q152.87-31.54 153.06-27.86 153.26-24.17 153.38-20.61 153.5-17.04 153.55-13.5 153.6-9.96 153.6-6.1L153.6-6.1Q153.6-5.57 153.67-4.64 153.74-3.71 153.82-2.83 153.89-1.95 153.96-1.25 154.04-0.54 154.04-0.49L154.04-0.49 151.94-0.1Q151.84-2.1 151.74-4.71 151.65-7.32 151.57-10.28 151.5-13.23 151.43-16.38 151.35-19.53 151.23-22.61 151.11-25.68 150.99-28.54 150.86-31.4 150.72-33.74L150.72-33.74ZM155.55-12.65L155.55-12.65Q155.55-14.16 155.87-16.04 156.18-17.92 156.82-19.85 157.45-21.78 158.41-23.61 159.36-25.44 160.6-26.88 161.85-28.32 163.43-29.2 165.02-30.08 166.93-30.08L166.93-30.08Q168.29-30.08 169.25-29.54 170.2-29 170.78-28.13 171.37-27.25 171.64-26.15 171.91-25.05 171.91-23.93L171.91-23.93Q170.83-23.93 170.3-24.58 169.76-25.24 169.29-26.05 168.83-26.86 168.22-27.51 167.61-28.17 166.39-28.17L166.39-28.17Q164.78-28.17 163.53-27.29 162.29-26.42 161.36-25.02 160.43-23.63 159.82-21.88 159.21-20.12 158.84-18.36 158.48-16.6 158.33-14.97 158.19-13.33 158.19-12.21L158.19-12.21Q157.99-10.55 158.16-8.76 158.33-6.98 158.97-5.49 159.6-4 160.82-3 162.04-2 164.05-1.86L164.05-1.86Q165.31-1.86 166.88-2.27 168.44-2.69 169.98-3.25 171.52-3.81 172.93-4.47 174.35-5.13 175.32-5.62L175.32-5.62 175.32-3.71Q175.28-3.71 174.71-3.49 174.15-3.27 173.25-2.93 172.35-2.59 171.2-2.2 170.05-1.81 168.93-1.39 167.8-0.98 166.75-0.61 165.71-0.24 164.97 0L164.97 0Q164.92 0 164.78 0.02 164.63 0.05 164.53 0.05L164.53 0.05Q161.85 0.05 160.11-1.1 158.38-2.25 157.36-4.08 156.33-5.91 155.94-8.18 155.55-10.45 155.55-12.65ZM198.81 0.1L196.95 0.1Q196.76-0.78 196.46-2.22 196.17-3.66 195.71-5.35 195.24-7.03 194.58-8.74 193.93-10.45 193-11.84 192.07-13.23 190.87-14.11 189.68-14.99 188.07-14.99L188.07-14.99Q187.43-14.99 186.41-14.89 185.38-14.79 184.4-14.58 183.43-14.36 182.69-13.96 181.96-13.57 181.96-13.04L181.96-13.04 181.96-0.63Q181.77-0.63 181.38-0.73 180.99-0.83 180.6-1 180.2-1.17 179.91-1.37 179.62-1.56 179.62-1.81L179.62-1.81 179.62-26.17Q179.03-26.07 178.59-25.66 178.15-25.24 177.89-24.66 177.62-24.07 177.47-23.49 177.32-22.9 177.27-22.41L177.27-22.41Q177.08-22.41 176.74-22.63 176.4-22.85 176.1-23.14 175.81-23.44 175.59-23.75 175.37-24.07 175.37-24.32L175.37-24.32Q175.37-25.54 176.1-26.68 176.84-27.83 178.01-28.78 179.18-29.74 180.62-30.49 182.06-31.25 183.52-31.79 184.99-32.32 186.31-32.62 187.63-32.91 188.55-32.91L188.55-32.91Q189.92-32.91 191.14-32.81 192.36-32.71 193.27-32.25 194.17-31.79 194.71-30.81 195.24-29.83 195.24-28.17L195.24-28.17Q195.24-26.66 194.71-25.22 194.17-23.78 193.34-22.46 192.51-21.14 191.48-19.95 190.46-18.75 189.43-17.72L189.43-17.72Q191.73-16.31 193.14-14.87 194.56-13.43 195.44-11.99 196.32-10.55 196.78-9.11 197.25-7.67 197.51-6.15 197.78-4.64 198.05-3.08 198.32-1.51 198.81 0.1L198.81 0.1ZM188.75-30.96L188.75-30.96Q188.41-30.96 187.8-30.93 187.19-30.91 186.41-30.81 185.62-30.71 184.87-30.52 184.11-30.32 183.45-29.98 182.79-29.64 182.38-29.17 181.96-28.71 181.96-28.03L181.96-28.03 181.96-15.63Q183.13-15.63 184.4-16.21 185.67-16.8 186.92-17.8 188.16-18.8 189.34-20.04 190.51-21.29 191.39-22.61 192.27-23.93 192.8-25.24 193.34-26.56 193.34-27.59L193.34-27.59Q193.34-28.71 192.97-29.37 192.61-30.03 191.97-30.4 191.34-30.76 190.51-30.86 189.68-30.96 188.75-30.96ZM210.28-30.42L210.28-30.42Q212.09-30.42 213.43-29.37 214.77-28.32 215.77-26.56 216.77-24.8 217.46-22.51 218.14-20.21 218.58-17.7 219.02-15.19 219.26-12.62 219.51-10.06 219.61-7.81 219.7-5.57 219.73-3.76 219.75-1.95 219.75-0.93L219.75-0.93 218.58-0.93 216.73-11.23Q216.48-11.47 215.63-11.52 214.77-11.57 213.62-11.47 212.48-11.38 211.13-11.21 209.79-11.04 208.6-10.96 207.4-10.89 206.42-10.91 205.45-10.94 205.01-11.23L205.01-11.23 205.01-0.93 202.52-0.93Q202.52-1.07 202.54-1.49 202.57-1.9 202.57-2.34 202.57-2.78 202.61-3.17 202.66-3.56 202.66-3.71L202.66-3.71Q202.96-6.54 203.13-9.45 203.3-12.35 203.54-15.09 203.79-17.82 204.2-20.31 204.62-22.8 205.4-24.83 206.18-26.86 207.35-28.3 208.52-29.74 210.28-30.42ZM211.06-28.17L211.06-28.17Q209.79-28.17 208.94-27.27 208.08-26.37 207.55-24.93 207.01-23.49 206.72-21.73 206.42-19.97 206.33-18.29 206.23-16.6 206.2-15.16 206.18-13.72 206.18-12.94L206.18-12.94Q208.57-12.94 211.06-13.31 213.55-13.67 215.75-14.06L215.75-14.06Q215.8-14.26 215.82-14.7 215.85-15.14 215.87-15.67 215.9-16.21 215.92-16.7 215.94-17.19 215.94-17.33L215.94-17.33Q215.94-18.95 215.77-20.41 215.6-21.88 215.09-23.27 214.58-24.66 213.62-25.88 212.67-27.1 211.06-28.17ZM222.58-25.29L222.58-25.29Q222.44-25.34 222.24-25.59 222.05-25.83 221.9-26.12 221.75-26.42 221.65-26.71 221.56-27 221.61-27.15L221.61-27.15Q221.65-27.34 221.9-27.64 222.14-27.93 222.44-28.25 222.73-28.56 223.02-28.81 223.31-29.05 223.51-29.05L223.51-29.05Q224.1-29.2 225.34-29.52 226.59-29.83 228.15-30.22 229.71-30.62 231.44-31.01 233.18-31.4 234.77-31.76 236.35-32.13 237.6-32.42 238.84-32.71 239.43-32.81L239.43-32.81Q239.67-32.86 240.23-32.91 240.8-32.96 241.43-33.01 242.06-33.06 242.63-33.11 243.19-33.15 243.38-33.15L243.38-33.15Q243.38-32.23 243.16-31.81 242.94-31.4 242.53-31.25 242.11-31.1 241.58-31.1 241.04-31.1 240.36-30.96L240.36-30.96Q239.87-30.81 238.74-30.52 237.62-30.22 236.25-29.86 234.89-29.49 233.35-29.1 231.81-28.71 230.42-28.32 229.03-27.93 227.93-27.61 226.83-27.29 226.29-27.15L226.29-27.15Q225.56-26.32 225.46-25.63 225.37-24.95 225.37-24.02L225.37-24.02Q225.37-21.92 225.63-20.04 225.9-18.16 226.29-15.92L226.29-15.92Q226.39-15.92 226.56-15.89 226.73-15.87 226.83-15.87L226.83-15.87Q228.15-15.87 229.39-16.19 230.64-16.5 231.88-16.89 233.13-17.29 234.42-17.6 235.72-17.92 237.08-17.92L237.08-17.92Q237.28-17.92 237.74-17.9 238.21-17.87 238.65-17.75 239.09-17.63 239.33-17.43 239.57-17.24 239.43-16.89L239.43-16.89 226.83-13.09 226.83 0.29Q225.95 0.29 225.46 0.07 224.98-0.15 224.78-0.56 224.58-0.98 224.54-1.54 224.49-2.1 224.44-2.83L224.44-2.83Q224.34-3.66 224.19-5.42 224.05-7.18 223.88-9.4 223.71-11.62 223.51-14.06 223.31-16.5 223.12-18.73 222.92-20.95 222.78-22.71 222.63-24.46 222.58-25.29ZM249.34-27.15L241.18-26.51 241.96-29.05Q242.01-29.1 242.72-29.17 243.43-29.25 244.6-29.37 245.77-29.49 247.24-29.64 248.7-29.79 250.24-29.93 251.78-30.08 253.27-30.22 254.76-30.37 256.03-30.52L256.03-30.52Q256.03-30.52 256.47-30.52 256.91-30.52 257.44-30.52 257.98-30.52 258.47-30.52 258.96-30.52 259.1-30.52L259.1-30.52Q260.28-30.52 260.71-30.08 261.15-29.64 261.15-28.17L261.15-28.17 252.27-27.15Q252.17-24.07 252.37-20.7 252.56-17.33 252.85-13.89 253.15-10.45 253.41-7.08 253.68-3.71 253.68-0.63L253.68-0.63Q253.68-0.2 253.41-0.02 253.15 0.15 252.78 0.2 252.41 0.24 252.02 0.17 251.63 0.1 251.34 0L251.34 0Q251.19-0.63 251.05-2.2 250.9-3.76 250.75-5.86 250.61-7.96 250.46-10.4 250.31-12.84 250.17-15.28 250.02-17.72 249.87-19.95 249.73-22.17 249.63-23.85 249.53-25.54 249.46-26.46 249.39-27.39 249.34-27.15L249.34-27.15ZM262.37-3.71L262.37-3.71Q262.62-4.3 263.13-4.44 263.64-4.59 264.23-3.71L264.23-3.71Q264.23-3.61 264.69-3.44 265.16-3.27 265.86-3.05 266.57-2.83 267.52-2.61 268.48-2.39 269.4-2.22 270.33-2.05 271.21-1.93 272.09-1.81 272.72-1.81L272.72-1.81Q274.38-1.81 275.78-2.51 277.17-3.22 278.17-4.35 279.17-5.47 279.71-6.91 280.24-8.35 280.24-9.86L280.24-9.86Q280.24-10.3 280.1-11.4 279.95-12.5 279.61-13.6 279.27-14.7 278.71-15.58 278.14-16.46 277.36-16.46L277.36-16.46Q272.28-15.87 269.04-15.99 265.79-16.11 263.89-16.75 261.98-17.38 261.22-18.48 260.47-19.58 260.42-21L260.42-21Q260.42-22.75 261.3-24.39 262.18-26.03 263.54-27.29 264.91-28.56 266.6-29.32 268.28-30.08 269.94-30.08L269.94-30.08Q271.31-30.08 272.8-29.74 274.29-29.39 275.56-28.69 276.83-27.98 277.63-26.83 278.44-25.68 278.44-24.07L278.44-24.07Q277.26-24.07 276.29-24.73 275.31-25.39 274.34-26.12 273.36-26.86 272.28-27.51 271.21-28.17 269.79-28.17L269.79-28.17Q268.62-28.17 267.43-27.59 266.23-27 265.28-26.07 264.33-25.15 263.72-24 263.1-22.85 263.1-21.63L263.1-21.63Q263.1-21.14 263.13-20.58 263.15-20.02 263.35-19.51 263.54-18.99 263.96-18.65 264.37-18.31 265.16-18.31L265.16-18.31 278.29-18.31Q279.12-18.31 279.73-17.8 280.34-17.29 280.76-16.5 281.17-15.72 281.44-14.75 281.71-13.77 281.88-12.84 282.05-11.91 282.1-11.11 282.15-10.3 282.15-9.86L282.15-9.86Q282.15-7.96 281.61-6.27 281.07-4.59 280-3.25 278.93-1.9 277.31-1.05 275.7-0.2 273.6 0L273.6 0Q272.58 0.1 270.94-0.05 269.31-0.2 267.65-0.61 265.99-1.03 264.52-1.78 263.06-2.54 262.37-3.71ZM285.27-1.86L285.27-1.86Q285.07-2.59 285.29-3 285.51-3.42 285.91-3.61 286.3-3.81 286.78-3.83 287.27-3.86 287.66-3.86L287.66-3.86Q288-3.86 288.49-3.83 288.98-3.81 289.37-3.61 289.76-3.42 289.96-3 290.15-2.59 289.96-1.86L289.96-1.86Q289.91-1.51 289.66-1.2 289.42-0.88 289.1-0.59 288.79-0.29 288.4-0.1 288 0.1 287.66 0.1L287.66 0.1Q287.27 0.1 286.88-0.1 286.49-0.29 286.15-0.59 285.81-0.88 285.59-1.2 285.37-1.51 285.27-1.86ZM291.57-12.65L291.57-12.65Q291.57-14.16 291.88-16.04 292.2-17.92 292.84-19.85 293.47-21.78 294.42-23.61 295.38-25.44 296.62-26.88 297.87-28.32 299.45-29.2 301.04-30.08 302.94-30.08L302.94-30.08Q304.31-30.08 305.26-29.54 306.22-29 306.8-28.13 307.39-27.25 307.66-26.15 307.92-25.05 307.92-23.93L307.92-23.93Q306.85-23.93 306.31-24.58 305.78-25.24 305.31-26.05 304.85-26.86 304.24-27.51 303.63-28.17 302.41-28.17L302.41-28.17Q300.8-28.17 299.55-27.29 298.3-26.42 297.38-25.02 296.45-23.63 295.84-21.88 295.23-20.12 294.86-18.36 294.5-16.6 294.35-14.97 294.2-13.33 294.2-12.21L294.2-12.21Q294.01-10.55 294.18-8.76 294.35-6.98 294.98-5.49 295.62-4 296.84-3 298.06-2 300.06-1.86L300.06-1.86Q301.33-1.86 302.89-2.27 304.46-2.69 306-3.25 307.53-3.81 308.95-4.47 310.37-5.13 311.34-5.62L311.34-5.62 311.34-3.71Q311.29-3.71 310.73-3.49 310.17-3.27 309.27-2.93 308.36-2.59 307.22-2.2 306.07-1.81 304.95-1.39 303.82-0.98 302.77-0.61 301.72-0.24 300.99 0L300.99 0Q300.94 0 300.8 0.02 300.65 0.05 300.55 0.05L300.55 0.05Q297.87 0.05 296.13-1.1 294.4-2.25 293.37-4.08 292.35-5.91 291.96-8.18 291.57-10.45 291.57-12.65ZM313.1-16.21L313.1-16.21Q313.1-17.82 313.32-19.63 313.54-21.44 314.05-23.17 314.56-24.9 315.37-26.49 316.17-28.08 317.32-29.27 318.47-30.47 320.01-31.18 321.54-31.88 323.5-31.88L323.5-31.88Q325.21-31.88 326.53-30.93 327.84-29.98 328.82-28.44 329.8-26.9 330.43-24.95 331.07-23 331.48-21.02 331.9-19.04 332.04-17.21 332.19-15.38 332.19-14.06L332.19-14.06Q331.99-11.18 331.36-8.76 330.72-6.35 329.63-4.52 328.53-2.69 326.92-1.51 325.3-0.34 323.01 0.05L323.01 0.05Q320.81 0.05 319.25-0.73 317.69-1.51 316.56-2.78 315.44-4.05 314.76-5.71 314.07-7.37 313.71-9.18 313.34-10.99 313.22-12.82 313.1-14.65 313.1-16.21ZM314.95-16.21L314.95-16.21Q314.95-15.04 315-13.57 315.05-12.11 315.27-10.62 315.49-9.13 315.93-7.69 316.37-6.25 317.13-5.15 317.88-4.05 319.03-3.37 320.18-2.69 321.79-2.69L321.79-2.69Q324.13-2.54 325.65-3.27 327.16-4 328.09-5.52 329.02-7.03 329.5-9.18 329.99-11.33 330.28-14.06L330.28-14.06Q330.28-15.14 330.19-16.75 330.09-18.36 329.82-20.12 329.55-21.88 329.09-23.66 328.62-25.44 327.87-26.88 327.11-28.32 326.06-29.2 325.01-30.08 323.55-30.08L323.55-30.08Q322.03-30.08 320.81-29.37 319.59-28.66 318.64-27.51 317.69-26.37 316.98-24.9 316.27-23.44 315.83-21.9 315.39-20.36 315.17-18.87 314.95-17.38 314.95-16.21ZM350.69-27.15L345.03-13.09 343.17-13.09 338.49-22.46 338.49-0.93 336.34-0.63Q336.24-2.34 336.17-4.93 336.09-7.52 336.02-10.52 335.95-13.53 335.9-16.7 335.85-19.87 335.8-22.8 335.75-25.73 335.68-28.17 335.6-30.62 335.51-32.13L335.51-32.13Q335.85-32.13 336.17-32.18 336.48-32.23 336.73-32.25 336.97-32.28 337.17-32.18 337.36-32.08 337.51-31.74L337.51-31.74 344.1-16.89 349.72-30.96Q349.81-31.2 350.08-31.37 350.35-31.54 350.67-31.69 350.99-31.84 351.33-31.91 351.67-31.98 351.91-31.98L351.91-31.98Q351.96-31.98 351.96-31.84 351.96-31.69 352.06-30.81 352.16-29.93 352.38-28.05 352.6-26.17 353.09-22.73 353.57-19.29 354.33-13.99 355.09-8.69 356.26-0.93L356.26-0.93Q356.06-0.49 355.75-0.34 355.43-0.2 355.16-0.24 354.89-0.29 354.67-0.46 354.45-0.63 354.4-0.93L354.4-0.93 350.69-27.15Z" fill="#ffffff" data-fill-palette-color="primary"></path></g></svg></g></svg></g><g transform="matrix(1,0,0,1,23.53344000000004,49.44010521114592)"><svg viewBox="0 0 371.98655999999994 16.489000014194918" height="16.489000014194918" width="371.98655999999994"><g transform="matrix(1,0,0,1,0,0)"><svg width="371.98655999999994" viewBox="2.48 -33.8 774.8299999999999 34.349999999999994" height="16.489000014194918" data-palette-color="#aab7c0"><path d="M2.48-33.13L6.48-33.13 6.08-21 2.88-21 2.48-33.13ZM10.75-33.13L14.75-33.13 14.35-21 11.15-21 10.75-33.13ZM28.75-29.15L19.97 0 15.77 0 25.77-31.95 32.32-31.95 42.35 0 38.15 0 29.37-29.15 28.75-29.15ZM36.32-12.88L36.32-9.43 21.77-9.43 21.77-12.88 36.32-12.88ZM45.67-8.78L45.67-24.4 49.7-24.4 49.7-9.22Q49.7-7.3 50.23-5.86 50.77-4.42 52-3.64 53.22-2.85 55.3-2.85L55.3-2.85Q57.25-2.85 58.65-3.56 60.05-4.28 60.93-5.53 61.82-6.78 62.15-8.35L62.15-8.35 62.87-5.48 62-5.48Q61.62-3.83 60.62-2.46 59.62-1.1 57.93-0.29 56.25 0.53 53.77 0.53L53.77 0.53Q50.9 0.53 49.11-0.56 47.32-1.65 46.5-3.74 45.67-5.83 45.67-8.78L45.67-8.78ZM61.97-6.1L61.97-24.4 66.02-24.4 66.02 0 61.97 0 62.15-5.85 61.97-6.1ZM81.54 0.5L81.54 0.5Q78.72 0.5 76.99-0.35 75.27-1.2 74.49-2.93 73.72-4.65 73.72-7.23L73.72-7.23 73.72-22.63 77.72-22.63 77.72-7.7Q77.72-5.3 78.82-4.16 79.92-3.03 82.52-3.03L82.52-3.03Q83.99-3.03 85.36-3.35 86.72-3.68 87.92-4.28L87.92-4.28 87.54-0.8Q86.37-0.2 84.79 0.15 83.22 0.5 81.54 0.5ZM87.67-24.05L87.29-20.8 69.72-20.8 69.72-24.05 87.67-24.05ZM77.79-31.03L77.62-23.65 73.74-23.65 73.72-30.5 77.79-31.03ZM112.82-15.63L112.82 0 108.77 0 108.77-15.18Q108.77-17.15 108.23-18.57 107.69-20 106.48-20.79 105.27-21.58 103.17-21.58L103.17-21.58Q101.24-21.58 99.84-20.85 98.44-20.13 97.58-18.89 96.72-17.65 96.37-16.07L96.37-16.07 95.47-18.95 96.52-18.95Q96.89-20.6 97.89-21.96 98.89-23.33 100.58-24.14 102.27-24.95 104.69-24.95L104.69-24.95Q107.59-24.95 109.38-23.85 111.17-22.75 111.99-20.69 112.82-18.63 112.82-15.63L112.82-15.63ZM96.49-17.85L96.49 0 92.44 0 92.44-33.13 96.47-33.13 96.47-25.18 96.34-18.18 96.49-17.85ZM129.34 0.55L129.34 0.55Q123.76 0.55 120.94-2.18 118.11-4.9 118.11-9.98L118.11-9.98 118.11-14.33Q118.11-19.48 120.74-22.26 123.36-25.05 128.41-25.05L128.41-25.05Q131.81-25.05 134.09-23.79 136.36-22.53 137.51-20.2 138.66-17.88 138.66-14.65L138.66-14.65 138.66-13.75Q138.66-12.95 138.6-12.15 138.54-11.35 138.44-10.58L138.44-10.58 134.71-10.58Q134.76-11.78 134.78-12.85 134.79-13.93 134.79-14.83L134.79-14.83Q134.79-17.05 134.08-18.59 133.36-20.13 131.95-20.94 130.54-21.75 128.41-21.75L128.41-21.75Q125.26-21.75 123.69-19.93 122.11-18.1 122.11-14.7L122.11-14.7 122.11-12.38 122.14-11.88 122.14-9.55Q122.14-8.03 122.59-6.8 123.04-5.58 124-4.69 124.96-3.8 126.45-3.34 127.94-2.88 129.99-2.88L129.99-2.88Q132.36-2.88 134.41-3.5 136.46-4.13 138.26-5.2L138.26-5.2 137.89-1.7Q136.26-0.68 134.11-0.06 131.96 0.55 129.34 0.55ZM137.59-13.63L137.59-10.58 120.24-10.58 120.24-13.63 137.59-13.63ZM164.44-15.63L164.44 0 160.39 0 160.39-15.18Q160.39-17.15 159.85-18.57 159.31-20 158.1-20.79 156.89-21.58 154.79-21.58L154.79-21.58Q152.86-21.58 151.45-20.85 150.04-20.13 149.16-18.89 148.29-17.65 147.94-16.07L147.94-16.07 147.21-18.95 148.09-18.95Q148.49-20.6 149.49-21.96 150.49-23.33 152.17-24.14 153.86-24.95 156.31-24.95L156.31-24.95Q159.21-24.95 161-23.85 162.79-22.75 163.61-20.69 164.44-18.63 164.44-15.63L164.44-15.63ZM148.11-18.32L148.11 0 144.06 0 144.06-24.4 148.11-24.4 147.94-18.55 148.11-18.32ZM179.51 0.5L179.51 0.5Q176.68 0.5 174.96-0.35 173.23-1.2 172.46-2.93 171.68-4.65 171.68-7.23L171.68-7.23 171.68-22.63 175.68-22.63 175.68-7.7Q175.68-5.3 176.78-4.16 177.88-3.03 180.48-3.03L180.48-3.03Q181.96-3.03 183.32-3.35 184.68-3.68 185.88-4.28L185.88-4.28 185.51-0.8Q184.33-0.2 182.76 0.15 181.18 0.5 179.51 0.5ZM185.63-24.05L185.26-20.8 167.68-20.8 167.68-24.05 185.63-24.05ZM175.76-31.03L175.58-23.65 171.71-23.65 171.68-30.5 175.76-31.03ZM194.53-24.4L194.53 0 190.48 0 190.48-24.4 194.53-24.4ZM192.51-28.4L192.51-28.4Q191.26-28.4 190.64-29.06 190.03-29.73 190.03-30.88L190.03-30.88 190.03-31Q190.03-32.18 190.64-32.83 191.26-33.48 192.51-33.48L192.51-33.48Q193.76-33.48 194.38-32.83 195.01-32.18 195.01-31L195.01-31 195.01-30.88Q195.01-29.7 194.38-29.05 193.76-28.4 192.51-28.4ZM210.63 0.55L210.63 0.55Q205.38 0.55 202.82-2.29 200.25-5.13 200.25-10.33L200.25-10.33 200.25-14.13Q200.25-19.35 202.83-22.16 205.4-24.98 210.63-24.98L210.63-24.98Q212.18-24.98 213.45-24.69 214.73-24.4 215.74-23.94 216.75-23.48 217.45-22.98L217.45-22.98 217.8-19.45Q216.63-20.35 215.02-20.98 213.4-21.6 211.23-21.6L211.23-21.6Q207.73-21.6 206.02-19.66 204.3-17.73 204.3-14.03L204.3-14.03 204.3-10.43Q204.3-6.8 206.02-4.85 207.73-2.9 211.23-2.9L211.23-2.9Q213.48-2.9 215.12-3.53 216.75-4.15 218.03-5.05L218.03-5.05 217.65-1.48Q216.55-0.73 214.78-0.09 213 0.55 210.63 0.55ZM248.62 0L248.62 0 238.17 0 238.17-3.43 248.22-3.43Q251.47-3.43 252.84-4.81 254.2-6.2 254.2-8.65L254.2-8.65 254.2-9.55Q254.2-12.05 252.81-13.43 251.42-14.8 247.97-14.8L247.97-14.8 238.2-14.8 238.2-18.07 247.92-18.07Q251-18.07 252.31-19.41 253.62-20.75 253.62-23.13L253.62-23.13 253.62-23.58Q253.62-25.93 252.36-27.24 251.1-28.55 247.9-28.55L247.9-28.55 238.1-28.55 238.1-31.95 248.27-31.95Q253.37-31.95 255.57-29.93 257.77-27.9 257.77-24.23L257.77-24.23 257.77-23.73Q257.77-20.8 256.37-19.13 254.97-17.45 252.02-17.13L252.02-17.13 252-16.98Q255.37-16.48 256.9-14.63 258.42-12.78 258.42-9.47L258.42-9.47 258.42-8.45Q258.42-4.48 256.12-2.24 253.82 0 248.62 0ZM239.45-31.95L239.45 0 235.35 0 235.35-31.95 239.45-31.95ZM263.57-8.78L263.57-24.4 267.6-24.4 267.6-9.22Q267.6-7.3 268.13-5.86 268.67-4.42 269.9-3.64 271.12-2.85 273.2-2.85L273.2-2.85Q275.15-2.85 276.55-3.56 277.95-4.28 278.83-5.53 279.72-6.78 280.05-8.35L280.05-8.35 280.77-5.48 279.9-5.48Q279.52-3.83 278.52-2.46 277.52-1.1 275.83-0.29 274.15 0.53 271.67 0.53L271.67 0.53Q268.8 0.53 267.01-0.56 265.22-1.65 264.4-3.74 263.57-5.83 263.57-8.78L263.57-8.78ZM279.87-6.1L279.87-24.4 283.92-24.4 283.92 0 279.87 0 280.05-5.85 279.87-6.1ZM310.89-15.63L310.89 0 306.84 0 306.84-15.18Q306.84-17.15 306.31-18.57 305.77-20 304.56-20.79 303.34-21.58 301.24-21.58L301.24-21.58Q299.32-21.58 297.91-20.85 296.49-20.13 295.62-18.89 294.74-17.65 294.39-16.07L294.39-16.07 293.67-18.95 294.54-18.95Q294.94-20.6 295.94-21.96 296.94-23.33 298.63-24.14 300.32-24.95 302.77-24.95L302.77-24.95Q305.67-24.95 307.46-23.85 309.24-22.75 310.07-20.69 310.89-18.63 310.89-15.63L310.89-15.63ZM294.57-18.32L294.57 0 290.52 0 290.52-24.4 294.57-24.4 294.39-18.55 294.57-18.32ZM325.22 0.53L325.22 0.53Q320.81 0.53 318.51-2.2 316.22-4.93 316.22-10.15L316.22-10.15 316.22-14.18Q316.22-19.43 318.54-22.19 320.87-24.95 325.39-24.95L325.39-24.95Q327.64-24.95 329.29-24.19 330.94-23.43 331.97-22.05 332.99-20.68 333.34-18.8L333.34-18.8 334.67-18.8 333.47-15.08Q333.39-17.23 332.5-18.69 331.62-20.15 330.1-20.9 328.59-21.65 326.64-21.65L326.64-21.65Q323.54-21.65 321.9-19.85 320.26-18.05 320.26-14.55L320.26-14.55 320.26-9.9Q320.26-6.45 321.9-4.65 323.54-2.85 326.64-2.85L326.64-2.85Q328.49-2.85 329.92-3.56 331.34-4.28 332.28-5.54 333.22-6.8 333.56-8.4L333.56-8.4 334.56-5.5 333.37-5.5Q333.01-3.85 332.03-2.48 331.04-1.1 329.38-0.29 327.72 0.53 325.22 0.53ZM337.42-33.13L337.42 0 333.37 0 333.54-5.9 333.47-7.2 333.47-17.4 333.49-18.25 333.39-25.18 333.39-33.13 337.42-33.13ZM354.26 0.55L354.26 0.55Q348.69 0.55 345.86-2.18 343.04-4.9 343.04-9.98L343.04-9.98 343.04-14.33Q343.04-19.48 345.66-22.26 348.29-25.05 353.34-25.05L353.34-25.05Q356.74-25.05 359.01-23.79 361.29-22.53 362.44-20.2 363.59-17.88 363.59-14.65L363.59-14.65 363.59-13.75Q363.59-12.95 363.53-12.15 363.46-11.35 363.36-10.58L363.36-10.58 359.64-10.58Q359.69-11.78 359.7-12.85 359.71-13.93 359.71-14.83L359.71-14.83Q359.71-17.05 359-18.59 358.29-20.13 356.88-20.94 355.46-21.75 353.34-21.75L353.34-21.75Q350.19-21.75 348.61-19.93 347.04-18.1 347.04-14.7L347.04-14.7 347.04-12.38 347.06-11.88 347.06-9.55Q347.06-8.03 347.51-6.8 347.96-5.58 348.93-4.69 349.89-3.8 351.38-3.34 352.86-2.88 354.91-2.88L354.91-2.88Q357.29-2.88 359.34-3.5 361.39-4.13 363.19-5.2L363.19-5.2 362.81-1.7Q361.19-0.68 359.04-0.06 356.89 0.55 354.26 0.55ZM362.51-13.63L362.51-10.58 345.16-10.58 345.16-13.63 362.51-13.63ZM373.14-33.13L373.14 0 369.11 0 369.11-33.13 373.14-33.13ZM389.03-13.6L400.56 0 395.71 0 386.06-11.38 383.48-11.38 383.48-14.53 386.06-14.53 395.31-24.4 400.11-24.4 389.03-12.63 389.03-13.6ZM383.88-33.13L383.88 0 379.86 0 379.86-33.13 383.88-33.13ZM424.96-15.63L424.96 0 420.91 0 420.91-15.18Q420.91-17.15 420.37-18.57 419.83-20 418.62-20.79 417.41-21.58 415.31-21.58L415.31-21.58Q413.38-21.58 411.98-20.85 410.58-20.13 409.72-18.89 408.86-17.65 408.51-16.07L408.51-16.07 407.61-18.95 408.66-18.95Q409.03-20.6 410.03-21.96 411.03-23.33 412.72-24.14 414.41-24.95 416.83-24.95L416.83-24.95Q419.73-24.95 421.52-23.85 423.31-22.75 424.13-20.69 424.96-18.63 424.96-15.63L424.96-15.63ZM408.63-17.85L408.63 0 404.58 0 404.58-33.13 408.61-33.13 408.61-25.18 408.48-18.18 408.63-17.85ZM449.73-15.8L449.73 0 445.7 0 445.88-5.93 445.73-6.55 445.73-14.33 445.75-15.75Q445.75-18.73 444.24-20.15 442.73-21.58 439.45-21.58L439.45-21.58Q436.83-21.58 434.64-20.83 432.45-20.08 430.75-19.07L430.75-19.07 431.13-22.53Q432.08-23.1 433.39-23.66 434.7-24.23 436.39-24.6 438.08-24.98 440.1-24.98L440.1-24.98Q442.73-24.98 444.57-24.34 446.4-23.7 447.54-22.5 448.68-21.3 449.2-19.6 449.73-17.9 449.73-15.8L449.73-15.8ZM437.3 0.53L437.3 0.53Q433.68 0.53 431.74-1.24 429.8-3 429.8-6.28L429.8-6.28 429.8-7Q429.8-10.38 431.89-12.04 433.98-13.7 438.53-14.35L438.53-14.35 446.25-15.45 446.48-12.5 439.03-11.43Q436.23-11.03 435.03-10.06 433.83-9.1 433.83-7.23L433.83-7.23 433.83-6.83Q433.83-4.9 435.02-3.88 436.2-2.85 438.58-2.85L438.58-2.85Q440.68-2.85 442.18-3.58 443.68-4.3 444.6-5.53 445.53-6.75 445.85-8.25L445.85-8.25 446.48-5.5 445.7-5.5Q445.35-3.9 444.39-2.53 443.43-1.15 441.7-0.31 439.98 0.53 437.3 0.53ZM476.3-15.63L476.3 0 472.25 0 472.25-15.18Q472.25-17.15 471.71-18.57 471.18-20 469.96-20.79 468.75-21.58 466.65-21.58L466.65-21.58Q464.73-21.58 463.31-20.85 461.9-20.13 461.03-18.89 460.15-17.65 459.8-16.07L459.8-16.07 459.08-18.95 459.95-18.95Q460.35-20.6 461.35-21.96 462.35-23.33 464.04-24.14 465.73-24.95 468.18-24.95L468.18-24.95Q471.08-24.95 472.86-23.85 474.65-22.75 475.48-20.69 476.3-18.63 476.3-15.63L476.3-15.63ZM459.98-18.32L459.98 0 455.93 0 455.93-24.4 459.98-24.4 459.8-18.55 459.98-18.32ZM490.62 0.53L490.62 0.53Q486.22 0.53 483.92-2.2 481.62-4.93 481.62-10.15L481.62-10.15 481.62-14.18Q481.62-19.43 483.95-22.19 486.27-24.95 490.8-24.95L490.8-24.95Q493.05-24.95 494.7-24.19 496.35-23.43 497.37-22.05 498.4-20.68 498.75-18.8L498.75-18.8 500.07-18.8 498.87-15.08Q498.8-17.23 497.91-18.69 497.02-20.15 495.51-20.9 494-21.65 492.05-21.65L492.05-21.65Q488.95-21.65 487.31-19.85 485.67-18.05 485.67-14.55L485.67-14.55 485.67-9.9Q485.67-6.45 487.31-4.65 488.95-2.85 492.05-2.85L492.05-2.85Q493.9-2.85 495.32-3.56 496.75-4.28 497.69-5.54 498.62-6.8 498.97-8.4L498.97-8.4 499.97-5.5 498.77-5.5Q498.42-3.85 497.44-2.48 496.45-1.1 494.79-0.29 493.12 0.53 490.62 0.53ZM502.82-33.13L502.82 0 498.77 0 498.95-5.9 498.87-7.2 498.87-17.4 498.9-18.25 498.8-25.18 498.8-33.13 502.82-33.13ZM521.84-31.95L525.99-31.95 525.99 0 521.84 0 521.84-31.95ZM541.14-31.95L545.29-31.95 545.29 0 541.14 0 541.14-31.95ZM542.79-14.73L524.22-14.73 524.22-18.23 542.79-18.23 542.79-14.73ZM570.81-15.8L570.81 0 566.79 0 566.97-5.93 566.81-6.55 566.81-14.33 566.84-15.75Q566.84-18.73 565.33-20.15 563.81-21.58 560.54-21.58L560.54-21.58Q557.91-21.58 555.73-20.83 553.54-20.08 551.84-19.07L551.84-19.07 552.22-22.53Q553.16-23.1 554.48-23.66 555.79-24.23 557.48-24.6 559.16-24.98 561.19-24.98L561.19-24.98Q563.81-24.98 565.65-24.34 567.49-23.7 568.63-22.5 569.76-21.3 570.29-19.6 570.81-17.9 570.81-15.8L570.81-15.8ZM558.39 0.53L558.39 0.53Q554.76 0.53 552.83-1.24 550.89-3 550.89-6.28L550.89-6.28 550.89-7Q550.89-10.38 552.98-12.04 555.06-13.7 559.62-14.35L559.62-14.35 567.34-15.45 567.56-12.5 560.12-11.43Q557.31-11.03 556.12-10.06 554.91-9.1 554.91-7.23L554.91-7.23 554.91-6.83Q554.91-4.9 556.1-3.88 557.29-2.85 559.66-2.85L559.66-2.85Q561.76-2.85 563.26-3.58 564.76-4.3 565.69-5.53 566.62-6.75 566.94-8.25L566.94-8.25 567.56-5.5 566.79-5.5Q566.44-3.9 565.48-2.53 564.51-1.15 562.79-0.31 561.06 0.53 558.39 0.53ZM597.39-15.63L597.39 0 593.34 0 593.34-15.18Q593.34-17.15 592.8-18.57 592.26-20 591.05-20.79 589.84-21.58 587.74-21.58L587.74-21.58Q585.81-21.58 584.4-20.85 582.99-20.13 582.11-18.89 581.24-17.65 580.89-16.07L580.89-16.07 580.16-18.95 581.04-18.95Q581.44-20.6 582.44-21.96 583.44-23.33 585.13-24.14 586.81-24.95 589.26-24.95L589.26-24.95Q592.16-24.95 593.95-23.85 595.74-22.75 596.56-20.69 597.39-18.63 597.39-15.63L597.39-15.63ZM581.06-18.32L581.06 0 577.01 0 577.01-24.4 581.06-24.4 580.89-18.55 581.06-18.32ZM611.71 0.53L611.71 0.53Q607.31 0.53 605.01-2.2 602.71-4.93 602.71-10.15L602.71-10.15 602.71-14.18Q602.71-19.43 605.03-22.19 607.36-24.95 611.88-24.95L611.88-24.95Q614.13-24.95 615.78-24.19 617.43-23.43 618.46-22.05 619.48-20.68 619.83-18.8L619.83-18.8 621.16-18.8 619.96-15.08Q619.88-17.23 619-18.69 618.11-20.15 616.6-20.9 615.08-21.65 613.13-21.65L613.13-21.65Q610.03-21.65 608.4-19.85 606.76-18.05 606.76-14.55L606.76-14.55 606.76-9.9Q606.76-6.45 608.4-4.65 610.03-2.85 613.13-2.85L613.13-2.85Q614.98-2.85 616.41-3.56 617.83-4.28 618.77-5.54 619.71-6.8 620.06-8.4L620.06-8.4 621.06-5.5 619.86-5.5Q619.51-3.85 618.52-2.48 617.53-1.1 615.87-0.29 614.21 0.53 611.71 0.53ZM623.91-33.13L623.91 0 619.86 0 620.03-5.9 619.96-7.2 619.96-17.4 619.98-18.25 619.88-25.18 619.88-33.13 623.91-33.13ZM634.63-24.4L634.63 0 630.58 0 630.58-24.4 634.63-24.4ZM632.61-28.4L632.61-28.4Q631.36-28.4 630.74-29.06 630.13-29.73 630.13-30.88L630.13-30.88 630.13-31Q630.13-32.18 630.74-32.83 631.36-33.48 632.61-33.48L632.61-33.48Q633.86-33.48 634.48-32.83 635.11-32.18 635.11-31L635.11-31 635.11-30.88Q635.11-29.7 634.48-29.05 633.86-28.4 632.61-28.4ZM650.73 0.55L650.73 0.55Q645.48 0.55 642.92-2.29 640.35-5.13 640.35-10.33L640.35-10.33 640.35-14.13Q640.35-19.35 642.93-22.16 645.5-24.98 650.73-24.98L650.73-24.98Q652.28-24.98 653.55-24.69 654.83-24.4 655.84-23.94 656.85-23.48 657.55-22.98L657.55-22.98 657.9-19.45Q656.73-20.35 655.12-20.98 653.5-21.6 651.33-21.6L651.33-21.6Q647.83-21.6 646.12-19.66 644.4-17.73 644.4-14.03L644.4-14.03 644.4-10.43Q644.4-6.8 646.12-4.85 647.83-2.9 651.33-2.9L651.33-2.9Q653.58-2.9 655.22-3.53 656.85-4.15 658.13-5.05L658.13-5.05 657.75-1.48Q656.65-0.73 654.88-0.09 653.1 0.55 650.73 0.55ZM666.88-14.93L666.88-14.93 665.95-18.05 666.95-18.1Q667.75-21.2 669.7-22.99 671.65-24.78 674.88-24.78L674.88-24.78Q675.68-24.78 676.31-24.65 676.95-24.53 677.45-24.35L677.45-24.35 677.7-20.43Q677.08-20.63 676.31-20.75 675.55-20.88 674.63-20.88L674.63-20.88Q671.88-20.88 669.84-19.35 667.8-17.82 666.88-14.93ZM667.08-16.9L667.08 0 663.03 0 663.03-24.4 666.98-24.4 666.78-17.2 667.08-16.9ZM699.6-15.8L699.6 0 695.57 0 695.75-5.93 695.6-6.55 695.6-14.33 695.62-15.75Q695.62-18.73 694.11-20.15 692.6-21.58 689.32-21.58L689.32-21.58Q686.7-21.58 684.51-20.83 682.32-20.08 680.62-19.07L680.62-19.07 681-22.53Q681.95-23.1 683.26-23.66 684.57-24.23 686.26-24.6 687.95-24.98 689.97-24.98L689.97-24.98Q692.6-24.98 694.44-24.34 696.27-23.7 697.41-22.5 698.55-21.3 699.07-19.6 699.6-17.9 699.6-15.8L699.6-15.8ZM687.17 0.53L687.17 0.53Q683.55 0.53 681.61-1.24 679.67-3 679.67-6.28L679.67-6.28 679.67-7Q679.67-10.38 681.76-12.04 683.85-13.7 688.4-14.35L688.4-14.35 696.12-15.45 696.35-12.5 688.9-11.43Q686.1-11.03 684.9-10.06 683.7-9.1 683.7-7.23L683.7-7.23 683.7-6.83Q683.7-4.9 684.89-3.88 686.07-2.85 688.45-2.85L688.45-2.85Q690.55-2.85 692.05-3.58 693.55-4.3 694.47-5.53 695.4-6.75 695.72-8.25L695.72-8.25 696.35-5.5 695.57-5.5Q695.22-3.9 694.26-2.53 693.3-1.15 691.57-0.31 689.85 0.53 687.17 0.53ZM713.95-33.8L713.95-33.8Q715.82-33.8 717.31-33.46 718.8-33.13 720.05-32.63L720.05-32.63 720.45-29.45Q719.22-29.9 717.98-30.16 716.75-30.43 715.2-30.43L715.2-30.43Q713.32-30.43 712.18-29.94 711.05-29.45 710.56-28.56 710.07-27.68 710.07-26.43L710.07-26.43 710.07-26.3Q710.07-25.43 710.3-24.64 710.52-23.85 710.8-23.2L710.8-23.2 708.07-23.1 708.07-23.6Q707.3-24.2 706.71-25.28 706.12-26.35 706.12-27.78L706.12-27.78 706.12-27.9Q706.12-30.58 708.02-32.19 709.92-33.8 713.95-33.8ZM710.97-22.23L710.97 0 706.95 0 706.95-22.23 710.97-22.23ZM720.35-23.48L719.97-20.25 702.92-20.25 702.92-23.48 708.5-23.45 710.15-23.48 720.35-23.48ZM733.19 0.5L733.19 0.5Q730.37 0.5 728.64-0.35 726.92-1.2 726.14-2.93 725.37-4.65 725.37-7.23L725.37-7.23 725.37-22.63 729.37-22.63 729.37-7.7Q729.37-5.3 730.47-4.16 731.57-3.03 734.17-3.03L734.17-3.03Q735.64-3.03 737.01-3.35 738.37-3.68 739.57-4.28L739.57-4.28 739.19-0.8Q738.02-0.2 736.44 0.15 734.87 0.5 733.19 0.5ZM739.32-24.05L738.94-20.8 721.37-20.8 721.37-24.05 739.32-24.05ZM729.44-31.03L729.27-23.65 725.39-23.65 725.37-30.5 729.44-31.03ZM751.77 0.55L751.77 0.55Q748.82 0.55 746.62-0.09 744.42-0.73 742.97-1.48L742.97-1.48 742.59-5.23Q744.42-4.28 746.6-3.58 748.79-2.88 751.57-2.88L751.57-2.88Q754.39-2.88 755.82-3.78 757.24-4.67 757.24-6.45L757.24-6.45 757.24-6.73Q757.24-7.88 756.7-8.63 756.17-9.38 754.77-9.95 753.37-10.53 750.79-11.1L750.79-11.1Q747.72-11.78 745.94-12.69 744.17-13.6 743.4-14.95 742.64-16.3 742.64-18.25L742.64-18.25 742.64-18.48Q742.64-21.68 744.87-23.33 747.09-24.98 751.57-24.98L751.57-24.98Q754.44-24.98 756.55-24.33 758.67-23.68 760.02-22.88L760.02-22.88 760.39-19.45Q758.77-20.4 756.67-21.03 754.57-21.65 751.94-21.65L751.94-21.65Q750.04-21.65 748.87-21.26 747.69-20.88 747.17-20.16 746.64-19.45 746.64-18.45L746.64-18.45 746.64-18.25Q746.64-17.15 747.17-16.39 747.69-15.63 749.05-15.06 750.42-14.5 752.84-13.98L752.84-13.98Q755.97-13.35 757.8-12.48 759.64-11.6 760.44-10.26 761.24-8.93 761.24-6.83L761.24-6.83 761.24-6.4Q761.24-2.95 758.84-1.2 756.44 0.55 751.77 0.55ZM765.04-33.13L769.04-33.13 768.64-21 765.44-21 765.04-33.13ZM773.31-33.13L777.31-33.13 776.91-21 773.71-21 773.31-33.13Z" opacity="1" transform="matrix(1,0,0,1,0,0)" fill="#ffffff" class="slogan-text-1" data-fill-palette-color="secondary" id="text-1"></path></svg></g></svg></g></svg></g></svg></g><g transform="matrix(1,0,0,1,418.0119861446891,0)"><svg viewBox="0 0 112.9311108865074 150.3381386453447" height="150.3381386453447" width="112.9311108865074"><g><svg xmlns="http://www.w3.org/2000/svg" xmlns:xlink="http://www.w3.org/1999/xlink" version="1.0" x="0" y="0" viewBox="261.1846376641776 371.946 73.55336233582238 97.91699999999997" enable-background="new 247.64 370.945 100 100" xml:space="preserve" height="150.3381386453447" width="112.9311108865074" class="icon-icon-0" data-fill-palette-color="accent" id="icon-0"><path d="M334.722 436.589V397.783C334.71 393.004 330.826 390.154 327.074 390.154H327.063A7.85 7.85 0 0 0 321.824 392.19C321.805 392.209 321.791 392.228 321.771 392.246V383.853C321.759 379.075 317.875 376.225 314.125 376.225H314.113A7.83 7.83 0 0 0 308.874 378.261C308.823 378.309 308.776 378.363 308.728 378.412 308.145 374.341 304.608 371.946 301.173 371.946H301.16A7.82 7.82 0 0 0 295.923 373.983C294.377 375.406 293.528 377.402 293.533 379.602V382.222A7.84 7.84 0 0 0 288.222 380.114H288.21A7.84 7.84 0 0 0 282.972 382.15C281.426 383.574 280.575 385.57 280.581 387.769V429.625L277.465 419.755C275.632 413.994 269.858 412.04 265.336 413.474 262.979 414.224 262.881 414.257 262.838 414.272 262.805 414.281 262.803 414.281 262.002 414.534A1.17 1.17 0 0 0 261.239 416.001L270.939 446.732C270.944 446.748 270.954 446.757 270.959 446.773 275.27 460.191 287.53 469.457 301.533 469.849 301.556 469.851 301.575 469.863 301.599 469.863 319.873 469.863 334.738 454.972 334.738 436.67 334.738 436.64 334.723 436.617 334.722 436.589M301.667 467.525C301.652 467.525 301.64 467.515 301.625 467.515 288.547 467.158 277.095 458.476 273.127 445.906L273.124 445.9 263.816 416.405 266.042 415.698C269.427 414.628 273.797 415.931 275.238 420.457L280.633 437.546C280.639 437.567 280.655 437.583 280.663 437.605 280.682 437.656 280.709 437.697 280.735 437.744 280.776 437.818 280.819 437.889 280.876 437.953 280.919 438.002 280.966 438.043 281.017 438.086 281.069 438.125 281.121 438.162 281.179 438.193A1 1 0 0 0 281.604 438.336C281.653 438.34 281.698 438.363 281.749 438.363 281.761 438.363 281.772 438.357 281.783 438.357 281.797 438.357 281.81 438.361 281.823 438.361 284.897 438.158 295.48 438.185 302.547 446.986A1.168 1.168 0 1 0 304.367 445.525C297.368 436.804 287.309 435.925 282.921 435.984V387.764C282.916 385.791 283.808 384.555 284.557 383.867A5.48 5.48 0 0 1 288.216 382.447H288.226C290.79 382.447 293.517 384.296 293.536 387.725L293.537 425.974A1.167 1.167 0 1 0 295.872 425.974V387.74L295.871 387.704V379.597C295.865 377.623 296.757 376.389 297.507 375.7A5.47 5.47 0 0 1 301.165 374.281C303.753 374.229 306.477 376.133 306.487 379.578V425.626A1.168 1.168 0 1 0 308.822 425.626V383.879C308.817 381.905 309.708 380.67 310.46 379.981A5.47 5.47 0 0 1 314.119 378.562H314.128C316.698 378.562 319.429 380.417 319.439 383.858V397.79L319.438 397.811 319.439 426.031A1.167 1.167 0 1 0 321.775 426.031V397.791C321.776 395.83 322.662 394.599 323.41 393.912A5.5 5.5 0 0 1 327.07 392.492H327.078C329.649 392.492 332.383 394.349 332.39 397.788V436.669C332.39 436.694 332.403 436.714 332.405 436.739 332.361 453.701 318.596 467.488 301.667 467.525" fill="#ffffff" data-fill-palette-color="accent"></path></svg></g></svg></g></svg></g><defs></defs></svg><rect width="395.52" height="111.99268043880974" fill="none" stroke="none" visibility="hidden"></rect></g></svg></g></svg>